<svg xmlns="http://www.w3.org/2000/svg" xmlns:xlink="http://www.w3.org/1999/xlink" width="51.098" height="51.09" viewBox="0 0 51.098 51.09"><defs><style>.a{fill:url(#a);}.b{fill:#80f;}</style><linearGradient id="a" x1="0.5" y1="1" x2="0.489" y2="0.039" gradientUnits="objectBoundingBox"><stop offset="0" stop-color="#4d008f"/><stop offset="1" stop-color="#ad4eff"/></linearGradient></defs><path class="a" d="M13.3,0V25.768A10.063,10.063,0,0,1,3.235,35.832h-1.8A1.438,1.438,0,0,1,0,34.394V13.3A13.3,13.3,0,0,1,13.3,0Z" transform="translate(9.403 34.74) rotate(-135)"/><path class="b" d="M1.475,0H2.95A10.325,10.325,0,0,1,13.275,10.325v26.09A13.275,13.275,0,0,1,0,23.14V1.475A1.475,1.475,0,0,1,1.475,0Z" transform="translate(35.151 41.701) rotate(135)"/><g transform="translate(41.695 16.365) rotate(45)"><path class="a" d="M13.3,0V25.749A10.063,10.063,0,0,1,3.235,35.812h-1.8A1.438,1.438,0,0,1,0,34.374V13.3A13.3,13.3,0,0,1,13.3,0Z" transform="translate(0 0)"/><path class="a" d="M13.3,0V25.749A10.063,10.063,0,0,1,3.235,35.812h-1.8A1.438,1.438,0,0,1,0,34.374V13.3A13.3,13.3,0,0,1,13.3,0Z" transform="translate(0 0)"/></g></svg>