<svg xmlns="http://www.w3.org/2000/svg" xmlns:xlink="http://www.w3.org/1999/xlink" width="51.091" height="51.104" viewBox="0 0 51.091 51.104"><defs><style>.a{fill:#80f;}.b{fill:url(#a);}.c{fill:url(#b);}</style><linearGradient id="a" x1="0.5" y1="1" x2="0.489" y2="0.039" gradientUnits="objectBoundingBox"><stop offset="0" stop-color="#4d008f"/><stop offset="1" stop-color="#ad4eff"/></linearGradient><linearGradient id="b" x1="0.5" x2="0.5" y2="1" gradientUnits="objectBoundingBox"><stop offset="0" stop-color="#4d008f"/><stop offset="0.481" stop-color="#80f"/><stop offset="1" stop-color="#ad4eff"/></linearGradient></defs><g transform="translate(15.928 9.387) rotate(-45)"><path class="a" d="M1.475,0H2.95A10.325,10.325,0,0,1,13.275,10.325V36.453A13.275,13.275,0,0,1,0,23.178V1.475A1.475,1.475,0,0,1,1.475,0Z" transform="translate(0 0)"/></g><g transform="translate(25.33 0.005) rotate(45)"><path class="b" d="M13.3,0V25.759A10.063,10.063,0,0,1,3.235,35.822h-1.8A1.438,1.438,0,0,1,0,34.385V13.3A13.3,13.3,0,0,1,13.3,0Z" transform="translate(13.298 35.822) rotate(180)"/></g><g transform="translate(35.95 40.914) rotate(135)"><path class="c" d="M0,0H.177A14.234,14.234,0,0,1,14.411,14.234H8.134A8.134,8.134,0,0,1,0,6.1Z" transform="translate(0 0)"/></g></svg>