<svg xmlns="http://www.w3.org/2000/svg" xmlns:xlink="http://www.w3.org/1999/xlink" width="51.291" height="51.202" viewBox="0 0 51.291 51.202"><defs><style>.a{fill:#80f;}.b{fill:url(#a);}.c{fill:url(#d);}</style><linearGradient id="a" x1="0.5" x2="0.489" y2="0.961" gradientUnits="objectBoundingBox"><stop offset="0" stop-color="#4d008f"/><stop offset="1" stop-color="#ad4eff"/></linearGradient><linearGradient id="d" y1="1" x2="0.489" y2="0.039" xlink:href="#a"/></defs><g transform="translate(25.343 0) rotate(45)"><path class="a" d="M12,0h2.146V23.841a12,12,0,0,1-12,12H1a1,1,0,0,1-1-1V12A12,12,0,0,1,12,0Z" transform="translate(0 0)"/></g><g transform="translate(41.888 16.462) rotate(45)"><path class="b" d="M1.438,0h1.8A10.063,10.063,0,0,1,13.3,10.063V35.832A13.3,13.3,0,0,1,0,22.534V1.438A1.438,1.438,0,0,1,1.438,0Z" transform="translate(0 0)"/><path class="b" d="M1.438,0h1.8A10.063,10.063,0,0,1,13.3,10.063V35.832A13.3,13.3,0,0,1,0,22.534V1.438A1.438,1.438,0,0,1,1.438,0Z" transform="translate(0 0)"/><path class="b" d="M1.438,0h1.8A10.063,10.063,0,0,1,13.3,10.063V35.832A13.3,13.3,0,0,1,0,22.534V1.438A1.438,1.438,0,0,1,1.438,0Z" transform="translate(0 0)"/></g><g transform="translate(25.431 0.005) rotate(45)"><path class="c" d="M10,0h.436V27.832a8,8,0,0,1-8,8H1a1,1,0,0,1-1-1V10A10,10,0,0,1,10,0Z" transform="translate(0 0)"/></g></svg>