<svg xmlns="http://www.w3.org/2000/svg" width="41.94" height="40.892" viewBox="0 0 41.94 40.892"><defs><style>.a{fill:#5f249f;}</style></defs><path class="a" d="M14.028,40.926c0,.169-.194.3-.44.3-.279.025-.474-.11-.474-.3,0-.169.194-.3.44-.3C13.808,40.6,14.028,40.731,14.028,40.926Zm-2.63-.381c-.059.169.11.364.364.414a.4.4,0,0,0,.524-.169c.051-.169-.11-.364-.364-.44A.434.434,0,0,0,11.4,40.545Zm3.737-.144c-.245.059-.414.22-.389.414.025.169.245.279.5.22s.414-.22.389-.389S15.381,40.376,15.135,40.4ZM20.7,8A20.276,20.276,0,0,0,0,28.632,21.2,21.2,0,0,0,14.332,48.857c1.082.194,1.463-.474,1.463-1.023,0-.524-.025-3.416-.025-5.192,0,0-5.919,1.268-7.162-2.52,0,0-.964-2.461-2.351-3.095,0,0-1.936-1.328.135-1.3a4.463,4.463,0,0,1,3.264,2.182c1.852,3.264,4.955,2.325,6.164,1.767a4.7,4.7,0,0,1,1.353-2.85c-4.727-.524-9.5-1.209-9.5-9.343a6.408,6.408,0,0,1,2-4.98,7.989,7.989,0,0,1,.22-5.741c1.767-.55,5.834,2.283,5.834,2.283a19.975,19.975,0,0,1,10.62,0s4.067-2.841,5.834-2.283A7.985,7.985,0,0,1,32.4,22.5a6.573,6.573,0,0,1,2.182,4.98c0,8.16-4.98,8.811-9.707,9.343a5,5,0,0,1,1.437,3.923c0,2.85-.025,6.375-.025,7.069,0,.55.389,1.218,1.463,1.023A21,21,0,0,0,41.94,28.632C41.94,16.9,32.427,8,20.7,8ZM8.219,37.163c-.11.085-.085.279.059.44.135.135.33.194.44.085.11-.085.085-.279-.059-.44C8.523,37.113,8.329,37.053,8.219,37.163Zm-.913-.685c-.059.11.025.245.194.33a.252.252,0,0,0,.364-.059c.059-.11-.025-.245-.194-.33C7.5,36.368,7.365,36.394,7.306,36.478Zm2.74,3.01c-.135.11-.085.364.11.524.194.194.44.22.55.085.11-.11.059-.364-.11-.524C10.409,39.379,10.155,39.353,10.045,39.489Zm-.964-1.243c-.135.085-.135.3,0,.5s.364.279.474.194a.386.386,0,0,0,0-.524c-.118-.194-.338-.279-.474-.169Z" transform="translate(0 -8)"/></svg>