<svg xmlns="http://www.w3.org/2000/svg" xmlns:xlink="http://www.w3.org/1999/xlink" width="259.34" height="66.321" viewBox="0 0 259.34 66.321"><defs><style>.a{fill:#80f;}.b{fill:url(#a);}.c{fill:#5f249f;}</style><linearGradient id="a" x1="0.5" x2="0.489" y2="0.961" gradientUnits="objectBoundingBox"><stop offset="0" stop-color="#4d008f"/><stop offset="1" stop-color="#ad4eff"/></linearGradient></defs><g transform="translate(-155.198 -592)"><g transform="translate(155.198 592)"><g transform="translate(66.312 33.463) rotate(135)"><path class="a" d="M1.915,0H3.83a13.4,13.4,0,0,1,13.4,13.4v33.92A17.233,17.233,0,0,1,0,30.09V1.915A1.915,1.915,0,0,1,1.915,0Z" transform="translate(0 0)"/></g><g transform="translate(0 32.891) rotate(-45)"><path class="b" d="M1.866,0H4.2A13.064,13.064,0,0,1,17.263,13.064V47.278A17.263,17.263,0,0,1,0,30.014V1.866A1.866,1.866,0,0,1,1.866,0Z" transform="translate(0 0)"/></g></g><path class="c" d="M24.318-17.562V9.57H21.03V-2.64H6.313V9.57H3.024V-17.562H6.313V-5.723H21.03V-17.562ZM49.189,7.185a6.757,6.757,0,0,0,1.644-.206l-.206,2.59a7.28,7.28,0,0,1-2.467.411,4.1,4.1,0,0,1-2.528-.7,3.429,3.429,0,0,1-1.172-2.343,6.173,6.173,0,0,1-2.775,2.24,9.474,9.474,0,0,1-3.844.8,8.381,8.381,0,0,1-5.015-1.418,4.728,4.728,0,0,1-1.973-4.09A5.119,5.119,0,0,1,32.91.423a12.49,12.49,0,0,1,5.961-2.364l5.467-.9V-4a4.366,4.366,0,0,0-1.274-3.289,4.871,4.871,0,0,0-3.535-1.233,6.325,6.325,0,0,0-3.556.987A6.343,6.343,0,0,0,33.65-4.613L31.225-6.381a6.927,6.927,0,0,1,3.063-3.659A9.921,9.921,0,0,1,39.529-11.4a9.163,9.163,0,0,1,5.879,1.768,6.274,6.274,0,0,1,2.22,5.221V5.705A1.507,1.507,0,0,0,48,6.815,1.635,1.635,0,0,0,49.189,7.185ZM38.008,7.1a7.918,7.918,0,0,0,4.46-1.233,3.709,3.709,0,0,0,1.87-3.207V-.173l-4.6.863a10.856,10.856,0,0,0-4.111,1.418,2.768,2.768,0,0,0-1.357,2.364,2.225,2.225,0,0,0,.987,1.953A4.814,4.814,0,0,0,38.008,7.1ZM58.726,4.061A3.608,3.608,0,0,0,59.2,6.219a2.129,2.129,0,0,0,1.747.6,7.99,7.99,0,0,0,1.5-.123,9.279,9.279,0,0,0,1.5-.452l-.534,3.165a7.718,7.718,0,0,1-3.042.576,4.741,4.741,0,0,1-3.72-1.357,6.083,6.083,0,0,1-1.213-4.152V-20.44h3.289ZM75.17,9.981a11.955,11.955,0,0,1-5.344-1.172,7.351,7.351,0,0,1-3.494-3.474L69,3.485A5.008,5.008,0,0,0,71.429,6.2a8.656,8.656,0,0,0,4.07.9,6.592,6.592,0,0,0,3.7-.863,2.559,2.559,0,0,0,1.274-2.179,2.165,2.165,0,0,0-1.192-1.912A13.358,13.358,0,0,0,75.088.9,21.411,21.411,0,0,1,70.4-.4a5.63,5.63,0,0,1-2.508-1.932,5.111,5.111,0,0,1-.781-2.9A5.228,5.228,0,0,1,68.1-8.313a6.838,6.838,0,0,1,2.837-2.24,10.217,10.217,0,0,1,4.275-.843,10.084,10.084,0,0,1,5.282,1.213,6.731,6.731,0,0,1,2.857,3.72l-2.8,1.644a5.16,5.16,0,0,0-1.994-2.837,6.056,6.056,0,0,0-3.35-.863,6.149,6.149,0,0,0-3.412.9,2.542,2.542,0,0,0-1.4,2.1,2.328,2.328,0,0,0,1.213,2.1,13.443,13.443,0,0,0,4.337,1.274q4.275.7,6.043,2.1A4.742,4.742,0,0,1,83.762,3.9a5.054,5.054,0,0,1-1.048,3.145,6.86,6.86,0,0,1-3,2.158A12.177,12.177,0,0,1,75.17,9.981Zm27.255-1.85a7.625,7.625,0,0,1-5.3,1.85,6.064,6.064,0,0,1-4.09-1.357,5.281,5.281,0,0,1-1.624-4.152V-8.148H87.3v-2.837h4.111v-4.933l3.289-.9v5.837H102.3v2.837H94.7V3.9a2.864,2.864,0,0,0,.843,2.24,3.217,3.217,0,0,0,2.24.761,4.8,4.8,0,0,0,3.494-1.521Zm21.5-.946a6.758,6.758,0,0,0,1.644-.206l-.206,2.59a7.28,7.28,0,0,1-2.467.411,4.1,4.1,0,0,1-2.528-.7A3.429,3.429,0,0,1,119.2,6.939a6.173,6.173,0,0,1-2.775,2.24,9.475,9.475,0,0,1-3.844.8,8.381,8.381,0,0,1-5.015-1.418,4.728,4.728,0,0,1-1.973-4.09A5.119,5.119,0,0,1,107.646.423a12.489,12.489,0,0,1,5.961-2.364l5.467-.9V-4A4.366,4.366,0,0,0,117.8-7.285a4.871,4.871,0,0,0-3.535-1.233,6.325,6.325,0,0,0-3.556.987,6.343,6.343,0,0,0-2.323,2.919l-2.425-1.768a6.927,6.927,0,0,1,3.063-3.659,9.921,9.921,0,0,1,5.241-1.357,9.163,9.163,0,0,1,5.879,1.768,6.274,6.274,0,0,1,2.22,5.221V5.705a1.507,1.507,0,0,0,.37,1.11A1.635,1.635,0,0,0,123.925,7.185ZM112.744,7.1A7.918,7.918,0,0,0,117.2,5.87a3.709,3.709,0,0,0,1.87-3.207V-.173l-4.6.863a10.856,10.856,0,0,0-4.111,1.418A2.768,2.768,0,0,0,109,4.472a2.225,2.225,0,0,0,.987,1.953A4.814,4.814,0,0,0,112.744,7.1Zm26.269-18.5a9.133,9.133,0,0,1,5.2,1.418,9.392,9.392,0,0,1,3.309,4.049L144.4-4.449a5.3,5.3,0,0,0-5.467-4.07,5.973,5.973,0,0,0-4.83,2.076,8.637,8.637,0,0,0-1.747,5.735A8.637,8.637,0,0,0,134.1,5.027,5.973,5.973,0,0,0,138.93,7.1a6.268,6.268,0,0,0,3.844-1.089,5.133,5.133,0,0,0,1.912-3.145l3.042,1.069a9.262,9.262,0,0,1-3.289,4.46,9.1,9.1,0,0,1-5.426,1.583,9.5,9.5,0,0,1-7.3-2.837q-2.652-2.837-2.652-7.852t2.652-7.852A9.5,9.5,0,0,1,139.012-11.4ZM161.17-.584l-4.358,4.358v5.8h-3.289V-20.44h3.289v20.1l10.647-10.647h4.111l-8.016,8.016,8.51,12.538h-3.988Z" transform="translate(242.474 629.44)"/></g></svg>